<?xml version="1.0" encoding="UTF-8" standalone="no"?>
<!DOCTYPE svg PUBLIC "-//W3C//DTD SVG 1.1//EN"
 "http://www.w3.org/Graphics/SVG/1.1/DTD/svg11.dtd">
<!-- Generated by graphviz version 14.0.5 (20251129.0259)
 -->
<!-- Title: OBR Pages: 1 -->
<svg width="1189pt" height="344pt"
 viewBox="0.00 0.00 1189.00 344.00" xmlns="http://www.w3.org/2000/svg" xmlns:xlink="http://www.w3.org/1999/xlink">
<g id="graph0" class="graph" transform="scale(1 1) rotate(0) translate(4 340)">
<title>OBR</title>
<polygon fill="white" stroke="none" points="-4,4 -4,-340 1184.87,-340 1184.87,4 -4,4"/>
<g id="clust1" class="cluster">
<title>cluster_input</title>
<polygon fill="lightblue" stroke="lightblue" points="8,-50 8,-286 115.75,-286 115.75,-50 8,-50"/>
<text xml:space="preserve" text-anchor="middle" x="61.88" y="-271.55" font-family="Arial" font-size="11.00">Input Sources</text>
</g>
<g id="clust2" class="cluster">
<title>cluster_binaural</title>
<polygon fill="lightyellow" stroke="lightyellow" points="140.38,-123 140.38,-328 857,-328 857,-123 140.38,-123"/>
<text xml:space="preserve" text-anchor="middle" x="498.69" y="-313.55" font-family="Arial" font-size="11.00">Binaural Processing (Per Processing Group)</text>
</g>
<g id="clust3" class="cluster">
<title>cluster_worldlocked</title>
<polygon fill="lightcoral" stroke="lightcoral" points="148.38,-158 148.38,-232 364,-232 364,-158 148.38,-158"/>
<text xml:space="preserve" text-anchor="middle" x="256.19" y="-217.55" font-family="Arial" font-size="11.00">World&#45;Locked Path</text>
</g>
<g id="clust4" class="cluster">
<title>cluster_headlocked</title>
<polygon fill="lightgreen" stroke="lightgreen" points="418.5,-224 418.5,-298 666.12,-298 666.12,-224 418.5,-224"/>
<text xml:space="preserve" text-anchor="middle" x="542.31" y="-283.55" font-family="Arial" font-size="11.00">Head&#45;Locked Path</text>
</g>
<g id="clust5" class="cluster">
<title>cluster_passthrough</title>
<polygon fill="lightgray" stroke="lightgray" points="134.75,-8 134.75,-82 237,-82 237,-8 134.75,-8"/>
<text xml:space="preserve" text-anchor="middle" x="185.88" y="-67.55" font-family="Arial" font-size="11.00">Passthrough Path</text>
</g>
<g id="clust6" class="cluster">
<title>cluster_output</title>
<polygon fill="lightgreen" stroke="lightgreen" points="878,-46 878,-133 1172.87,-133 1172.87,-46 878,-46"/>
<text xml:space="preserve" text-anchor="middle" x="1025.44" y="-118.55" font-family="Arial" font-size="11.00">Output Processing</text>
</g>
<!-- Ambisonics -->
<g id="node1" class="node">
<title>Ambisonics</title>
<path fill="lightgrey" stroke="black" d="M85.25,-148C85.25,-148 38.5,-148 38.5,-148 32.5,-148 26.5,-142 26.5,-136 26.5,-136 26.5,-124 26.5,-124 26.5,-118 32.5,-112 38.5,-112 38.5,-112 85.25,-112 85.25,-112 91.25,-112 97.25,-118 97.25,-124 97.25,-124 97.25,-136 97.25,-136 97.25,-142 91.25,-148 85.25,-148"/>
<text xml:space="preserve" text-anchor="middle" x="61.88" y="-133.05" font-family="Arial" font-size="11.00">Ambisonics</text>
<text xml:space="preserve" text-anchor="middle" x="61.88" y="-119.55" font-family="Arial" font-size="11.00">(1OA&#45;4OA)</text>
</g>
<!-- Mix_WL -->
<g id="node6" class="node">
<title>Mix_WL</title>
<path fill="lightgrey" stroke="black" d="M344,-202C344,-202 280,-202 280,-202 274,-202 268,-196 268,-190 268,-190 268,-178 268,-178 268,-172 274,-166 280,-166 280,-166 344,-166 344,-166 350,-166 356,-172 356,-178 356,-178 356,-190 356,-190 356,-196 350,-202 344,-202"/>
<text xml:space="preserve" text-anchor="middle" x="312" y="-180.3" font-family="Arial" font-size="11.00">Ambisonic Bed</text>
</g>
<!-- Ambisonics&#45;&gt;Mix_WL -->
<g id="edge1" class="edge">
<title>Ambisonics&#45;&gt;Mix_WL</title>
<path fill="none" stroke="black" d="M97.64,-133.36C133.08,-137.26 189.45,-144.76 237,-157 243.61,-158.7 250.45,-160.76 257.18,-162.98"/>
<polygon fill="black" stroke="black" points="255.6,-166.14 266.19,-166.08 257.87,-159.52 255.6,-166.14"/>
</g>
<!-- Mix_HL -->
<g id="node8" class="node">
<title>Mix_HL</title>
<path fill="lightgrey" stroke="black" d="M646.12,-268C646.12,-268 582.12,-268 582.12,-268 576.12,-268 570.12,-262 570.12,-256 570.12,-256 570.12,-244 570.12,-244 570.12,-238 576.12,-232 582.12,-232 582.12,-232 646.12,-232 646.12,-232 652.12,-232 658.12,-238 658.12,-244 658.12,-244 658.12,-256 658.12,-256 658.12,-262 652.12,-268 646.12,-268"/>
<text xml:space="preserve" text-anchor="middle" x="614.12" y="-246.3" font-family="Arial" font-size="11.00">Ambisonic Bed</text>
</g>
<!-- Ambisonics&#45;&gt;Mix_HL -->
<g id="edge2" class="edge">
<title>Ambisonics&#45;&gt;Mix_HL</title>
<path fill="none" stroke="black" d="M97.67,-116.67C121.67,-108.65 154.5,-100 184.38,-100 184.38,-100 184.38,-100 456.5,-100 499.34,-100 521.24,-88.19 551,-119 582.58,-151.7 546.12,-183.42 566.05,-222.09"/>
<polygon fill="black" stroke="black" points="562.9,-223.65 571.19,-230.24 568.82,-219.92 562.9,-223.65"/>
</g>
<!-- Loudspeaker -->
<g id="node2" class="node">
<title>Loudspeaker</title>
<path fill="lightgrey" stroke="black" d="M95.75,-202C95.75,-202 28,-202 28,-202 22,-202 16,-196 16,-190 16,-190 16,-178 16,-178 16,-172 22,-166 28,-166 28,-166 95.75,-166 95.75,-166 101.75,-166 107.75,-172 107.75,-178 107.75,-178 107.75,-190 107.75,-190 107.75,-196 101.75,-202 95.75,-202"/>
<text xml:space="preserve" text-anchor="middle" x="61.88" y="-187.05" font-family="Arial" font-size="11.00">Loudspeakers</text>
<text xml:space="preserve" text-anchor="middle" x="61.88" y="-173.55" font-family="Arial" font-size="11.00">(5.1, 7.1.4, etc.)</text>
</g>
<!-- Encode_WL -->
<g id="node5" class="node">
<title>Encode_WL</title>
<path fill="lightgrey" stroke="black" d="M202.38,-202C202.38,-202 168.38,-202 168.38,-202 162.38,-202 156.38,-196 156.38,-190 156.38,-190 156.38,-178 156.38,-178 156.38,-172 162.38,-166 168.38,-166 168.38,-166 202.38,-166 202.38,-166 208.38,-166 214.38,-172 214.38,-178 214.38,-178 214.38,-190 214.38,-190 214.38,-196 208.38,-202 202.38,-202"/>
<text xml:space="preserve" text-anchor="middle" x="185.38" y="-187.05" font-family="Arial" font-size="11.00">Encode</text>
<text xml:space="preserve" text-anchor="middle" x="185.38" y="-173.55" font-family="Arial" font-size="11.00">Lspk/Obj</text>
</g>
<!-- Loudspeaker&#45;&gt;Encode_WL -->
<g id="edge3" class="edge">
<title>Loudspeaker&#45;&gt;Encode_WL</title>
<path fill="none" stroke="black" d="M108.12,-184C120.16,-184 133.07,-184 144.79,-184"/>
<polygon fill="black" stroke="black" points="144.51,-187.5 154.51,-184 144.51,-180.5 144.51,-187.5"/>
</g>
<!-- Encode_HL -->
<g id="node7" class="node">
<title>Encode_HL</title>
<path fill="lightgrey" stroke="black" d="M472.5,-268C472.5,-268 438.5,-268 438.5,-268 432.5,-268 426.5,-262 426.5,-256 426.5,-256 426.5,-244 426.5,-244 426.5,-238 432.5,-232 438.5,-232 438.5,-232 472.5,-232 472.5,-232 478.5,-232 484.5,-238 484.5,-244 484.5,-244 484.5,-256 484.5,-256 484.5,-262 478.5,-268 472.5,-268"/>
<text xml:space="preserve" text-anchor="middle" x="455.5" y="-253.05" font-family="Arial" font-size="11.00">Encode</text>
<text xml:space="preserve" text-anchor="middle" x="455.5" y="-239.55" font-family="Arial" font-size="11.00">Lspk/Obj</text>
</g>
<!-- Loudspeaker&#45;&gt;Encode_HL -->
<g id="edge4" class="edge">
<title>Loudspeaker&#45;&gt;Encode_HL</title>
<path fill="none" stroke="black" d="M103.63,-202.39C107.9,-205.02 112.03,-207.89 115.75,-211 126.46,-219.95 122.39,-229.53 134.75,-236 182.35,-260.92 340.53,-256.18 415.03,-252.37"/>
<polygon fill="black" stroke="black" points="414.93,-255.88 424.73,-251.85 414.56,-248.89 414.93,-255.88"/>
</g>
<!-- Object -->
<g id="node3" class="node">
<title>Object</title>
<path fill="lightgrey" stroke="black" d="M87.88,-256C87.88,-256 35.88,-256 35.88,-256 29.88,-256 23.88,-250 23.88,-244 23.88,-244 23.88,-232 23.88,-232 23.88,-226 29.88,-220 35.88,-220 35.88,-220 87.88,-220 87.88,-220 93.88,-220 99.88,-226 99.88,-232 99.88,-232 99.88,-244 99.88,-244 99.88,-250 93.88,-256 87.88,-256"/>
<text xml:space="preserve" text-anchor="middle" x="61.88" y="-241.05" font-family="Arial" font-size="11.00">Object</text>
<text xml:space="preserve" text-anchor="middle" x="61.88" y="-227.55" font-family="Arial" font-size="11.00">(Mono/Dual)</text>
</g>
<!-- Object&#45;&gt;Encode_WL -->
<g id="edge5" class="edge">
<title>Object&#45;&gt;Encode_WL</title>
<path fill="none" stroke="black" d="M100.32,-221.36C114.8,-214.92 131.35,-207.57 145.92,-201.09"/>
<polygon fill="black" stroke="black" points="147.02,-204.43 154.74,-197.17 144.18,-198.03 147.02,-204.43"/>
</g>
<!-- Object&#45;&gt;Encode_HL -->
<g id="edge6" class="edge">
<title>Object&#45;&gt;Encode_HL</title>
<path fill="none" stroke="black" d="M100.36,-256.29C108.55,-259.48 117.29,-262.32 125.75,-264 234.41,-285.58 264.64,-273.64 375,-264 388.15,-262.85 402.38,-260.65 415.12,-258.33"/>
<polygon fill="black" stroke="black" points="415.67,-261.79 424.84,-256.48 414.36,-254.91 415.67,-261.79"/>
</g>
<!-- Passthrough -->
<g id="node4" class="node">
<title>Passthrough</title>
<path fill="lightyellow" stroke="black" d="M92.75,-94C92.75,-94 31,-94 31,-94 25,-94 19,-88 19,-82 19,-82 19,-70 19,-70 19,-64 25,-58 31,-58 31,-58 92.75,-58 92.75,-58 98.75,-58 104.75,-64 104.75,-70 104.75,-70 104.75,-82 104.75,-82 104.75,-88 98.75,-94 92.75,-94"/>
<text xml:space="preserve" text-anchor="middle" x="61.88" y="-79.05" font-family="Arial" font-size="11.00">Passthrough</text>
<text xml:space="preserve" text-anchor="middle" x="61.88" y="-65.55" font-family="Arial" font-size="11.00">(Mono/Stereo)</text>
</g>
<!-- DirectLR -->
<g id="node13" class="node">
<title>DirectLR</title>
<path fill="lightgrey" stroke="black" d="M200.38,-52C200.38,-52 170.38,-52 170.38,-52 164.38,-52 158.38,-46 158.38,-40 158.38,-40 158.38,-28 158.38,-28 158.38,-22 164.38,-16 170.38,-16 170.38,-16 200.38,-16 200.38,-16 206.38,-16 212.38,-22 212.38,-28 212.38,-28 212.38,-40 212.38,-40 212.38,-46 206.38,-52 200.38,-52"/>
<text xml:space="preserve" text-anchor="middle" x="185.38" y="-37.05" font-family="Arial" font-size="11.00">Direct</text>
<text xml:space="preserve" text-anchor="middle" x="185.38" y="-23.55" font-family="Arial" font-size="11.00">L/R</text>
</g>
<!-- Passthrough&#45;&gt;DirectLR -->
<g id="edge7" class="edge">
<title>Passthrough&#45;&gt;DirectLR</title>
<path fill="none" stroke="black" d="M105.03,-61.43C118.84,-56.65 134.08,-51.39 147.47,-46.76"/>
<polygon fill="black" stroke="black" points="148.48,-50.11 156.79,-43.53 146.2,-43.49 148.48,-50.11"/>
</g>
<!-- Encode_WL&#45;&gt;Mix_WL -->
<g id="edge8" class="edge">
<title>Encode_WL&#45;&gt;Mix_WL</title>
<path fill="none" stroke="black" d="M214.65,-184C227.01,-184 241.94,-184 256.31,-184"/>
<polygon fill="black" stroke="black" points="256.15,-187.5 266.15,-184 256.15,-180.5 256.15,-187.5"/>
</g>
<!-- HeadTracking -->
<g id="node9" class="node">
<title>HeadTracking</title>
<path fill="white" stroke="black" d="M445.03,-208.14C445.03,-208.14 403.47,-184.86 403.47,-184.86 398.24,-181.93 398.24,-176.07 403.47,-173.14 403.47,-173.14 445.03,-149.86 445.03,-149.86 450.26,-146.93 460.74,-146.93 465.97,-149.86 465.97,-149.86 507.53,-173.14 507.53,-173.14 512.76,-176.07 512.76,-181.93 507.53,-184.86 507.53,-184.86 465.97,-208.14 465.97,-208.14 460.74,-211.07 450.26,-211.07 445.03,-208.14"/>
<text xml:space="preserve" text-anchor="middle" x="455.5" y="-182.05" font-family="Arial" font-size="11.00">Head</text>
<text xml:space="preserve" text-anchor="middle" x="455.5" y="-168.55" font-family="Arial" font-size="11.00">Tracking?</text>
</g>
<!-- Mix_WL&#45;&gt;HeadTracking -->
<g id="edge10" class="edge">
<title>Mix_WL&#45;&gt;HeadTracking</title>
<path fill="none" stroke="black" d="M356.22,-182.47C365.22,-182.15 374.92,-181.81 384.6,-181.47"/>
<polygon fill="black" stroke="black" points="384.52,-184.97 394.39,-181.12 384.28,-177.98 384.52,-184.97"/>
</g>
<!-- Encode_HL&#45;&gt;Mix_HL -->
<g id="edge9" class="edge">
<title>Encode_HL&#45;&gt;Mix_HL</title>
<path fill="none" stroke="black" d="M484.86,-250C505.34,-250 533.62,-250 558.42,-250"/>
<polygon fill="black" stroke="black" points="558.39,-253.5 568.39,-250 558.39,-246.5 558.39,-253.5"/>
</g>
<!-- SumBeds -->
<g id="node11" class="node">
<title>SumBeds</title>
<path fill="lightgrey" stroke="black" d="M738.25,-206C738.25,-206 708.25,-206 708.25,-206 702.25,-206 696.25,-200 696.25,-194 696.25,-194 696.25,-182 696.25,-182 696.25,-176 702.25,-170 708.25,-170 708.25,-170 738.25,-170 738.25,-170 744.25,-170 750.25,-176 750.25,-182 750.25,-182 750.25,-194 750.25,-194 750.25,-200 744.25,-206 738.25,-206"/>
<text xml:space="preserve" text-anchor="middle" x="723.25" y="-191.05" font-family="Arial" font-size="11.00">Sum</text>
<text xml:space="preserve" text-anchor="middle" x="723.25" y="-177.55" font-family="Arial" font-size="11.00">Beds</text>
</g>
<!-- Mix_HL&#45;&gt;SumBeds -->
<g id="edge14" class="edge">
<title>Mix_HL&#45;&gt;SumBeds</title>
<path fill="none" stroke="black" d="M658.56,-232.02C661.15,-230.72 663.69,-229.37 666.12,-228 673.97,-223.58 682.05,-218.3 689.55,-213.06"/>
<polygon fill="black" stroke="black" points="691.37,-216.05 697.45,-207.37 687.29,-210.37 691.37,-216.05"/>
</g>
<!-- Rotate -->
<g id="node10" class="node">
<title>Rotate</title>
<path fill="lightgrey" stroke="black" d="M647.25,-167C647.25,-167 581,-167 581,-167 575,-167 569,-161 569,-155 569,-155 569,-143 569,-143 569,-137 575,-131 581,-131 581,-131 647.25,-131 647.25,-131 653.25,-131 659.25,-137 659.25,-143 659.25,-143 659.25,-155 659.25,-155 659.25,-161 653.25,-167 647.25,-167"/>
<text xml:space="preserve" text-anchor="middle" x="614.12" y="-145.3" font-family="Arial" font-size="11.00">Scene Rotation</text>
</g>
<!-- HeadTracking&#45;&gt;Rotate -->
<g id="edge11" class="edge">
<title>HeadTracking&#45;&gt;Rotate</title>
<path fill="none" stroke="black" d="M503.07,-170.08C520.16,-166.81 539.69,-163.07 557.5,-159.66"/>
<polygon fill="black" stroke="black" points="557.97,-163.13 567.13,-157.81 556.65,-156.25 557.97,-163.13"/>
<text xml:space="preserve" text-anchor="middle" x="543.5" y="-165.05" font-family="Arial" font-size="9.00">Yes</text>
</g>
<!-- HeadTracking&#45;&gt;SumBeds -->
<g id="edge12" class="edge">
<title>HeadTracking&#45;&gt;SumBeds</title>
<path fill="none" stroke="black" d="M515.15,-180.99C566.81,-182.74 640.52,-185.23 684.66,-186.73"/>
<polygon fill="black" stroke="black" points="684.38,-190.22 694.5,-187.06 684.62,-183.22 684.38,-190.22"/>
<text xml:space="preserve" text-anchor="middle" x="614.12" y="-188.01" font-family="Arial" font-size="9.00">No</text>
</g>
<!-- Rotate&#45;&gt;SumBeds -->
<g id="edge13" class="edge">
<title>Rotate&#45;&gt;SumBeds</title>
<path fill="none" stroke="black" d="M659.62,-165.2C668.08,-168.28 676.85,-171.47 685.05,-174.46"/>
<polygon fill="black" stroke="black" points="683.79,-177.72 694.38,-177.85 686.18,-171.14 683.79,-177.72"/>
</g>
<!-- Decode -->
<g id="node12" class="node">
<title>Decode</title>
<path fill="lightgrey" stroke="black" d="M837,-179C837,-179 799.25,-179 799.25,-179 793.25,-179 787.25,-173 787.25,-167 787.25,-167 787.25,-155 787.25,-155 787.25,-149 793.25,-143 799.25,-143 799.25,-143 837,-143 837,-143 843,-143 849,-149 849,-155 849,-155 849,-167 849,-167 849,-173 843,-179 837,-179"/>
<text xml:space="preserve" text-anchor="middle" x="818.12" y="-164.05" font-family="Arial" font-size="11.00">Binaural</text>
<text xml:space="preserve" text-anchor="middle" x="818.12" y="-150.55" font-family="Arial" font-size="11.00">Decoding</text>
</g>
<!-- SumBeds&#45;&gt;Decode -->
<g id="edge15" class="edge">
<title>SumBeds&#45;&gt;Decode</title>
<path fill="none" stroke="black" d="M750.62,-180.34C758.45,-178.06 767.22,-175.51 775.76,-173.02"/>
<polygon fill="black" stroke="black" points="776.68,-176.4 785.31,-170.25 774.73,-169.68 776.68,-176.4"/>
</g>
<!-- MixOutput -->
<g id="node14" class="node">
<title>MixOutput</title>
<path fill="lightgrey" stroke="black" d="M928,-97C928,-97 898,-97 898,-97 892,-97 886,-91 886,-85 886,-85 886,-73 886,-73 886,-67 892,-61 898,-61 898,-61 928,-61 928,-61 934,-61 940,-67 940,-73 940,-73 940,-85 940,-85 940,-91 934,-97 928,-97"/>
<text xml:space="preserve" text-anchor="middle" x="913" y="-82.05" font-family="Arial" font-size="11.00">Sum</text>
<text xml:space="preserve" text-anchor="middle" x="913" y="-68.55" font-family="Arial" font-size="11.00">All</text>
</g>
<!-- Decode&#45;&gt;MixOutput -->
<g id="edge16" class="edge">
<title>Decode&#45;&gt;MixOutput</title>
<path fill="none" stroke="black" d="M839.74,-142.8C852.39,-131.63 868.8,-117.14 882.79,-104.79"/>
<polygon fill="black" stroke="black" points="884.81,-107.68 889.99,-98.43 880.18,-102.43 884.81,-107.68"/>
</g>
<!-- DirectLR&#45;&gt;MixOutput -->
<g id="edge17" class="edge">
<title>DirectLR&#45;&gt;MixOutput</title>
<path fill="none" stroke="black" d="M212.54,-38.66C237.69,-42.73 276.82,-48 311,-48 311,-48 311,-48 819.12,-48 838.23,-48 858.46,-53.97 875.14,-60.68"/>
<polygon fill="black" stroke="black" points="873.59,-63.82 884.16,-64.54 876.34,-57.38 873.59,-63.82"/>
</g>
<!-- Limiter -->
<g id="node15" class="node">
<title>Limiter</title>
<path fill="lightgrey" stroke="black" d="M1019,-97C1019,-97 989,-97 989,-97 983,-97 977,-91 977,-85 977,-85 977,-73 977,-73 977,-67 983,-61 989,-61 989,-61 1019,-61 1019,-61 1025,-61 1031,-67 1031,-73 1031,-73 1031,-85 1031,-85 1031,-91 1025,-97 1019,-97"/>
<text xml:space="preserve" text-anchor="middle" x="1004" y="-82.05" font-family="Arial" font-size="11.00">Peak</text>
<text xml:space="preserve" text-anchor="middle" x="1004" y="-68.55" font-family="Arial" font-size="11.00">Limiter</text>
</g>
<!-- MixOutput&#45;&gt;Limiter -->
<g id="edge18" class="edge">
<title>MixOutput&#45;&gt;Limiter</title>
<path fill="none" stroke="black" d="M940.22,-79C948.12,-79 956.94,-79 965.43,-79"/>
<polygon fill="black" stroke="black" points="965.14,-82.5 975.14,-79 965.14,-75.5 965.14,-82.5"/>
</g>
<!-- Output -->
<g id="node16" class="node">
<title>Output</title>
<ellipse fill="lightgrey" stroke="black" cx="1116.44" cy="-79" rx="48.44" ry="24.75"/>
<text xml:space="preserve" text-anchor="middle" x="1116.44" y="-82.05" font-family="Arial" font-size="11.00">Stereo</text>
<text xml:space="preserve" text-anchor="middle" x="1116.44" y="-68.55" font-family="Arial" font-size="11.00">Output L/R</text>
</g>
<!-- Limiter&#45;&gt;Output -->
<g id="edge19" class="edge">
<title>Limiter&#45;&gt;Output</title>
<path fill="none" stroke="black" d="M1031.45,-79C1039,-79 1047.53,-79 1056.2,-79"/>
<polygon fill="black" stroke="black" points="1056.09,-82.5 1066.09,-79 1056.09,-75.5 1056.09,-82.5"/>
</g>
</g>
</svg>
